<svg id="Слой_1" data-name="Слой 1" xmlns="http://www.w3.org/2000/svg" xmlns:xlink="http://www.w3.org/1999/xlink" viewBox="0 0 265.98 54"><defs><style>.cls-1{fill:none;}.cls-2{clip-path:url(#clip-path);}.cls-3{fill:#94b4cd;}.cls-3,.cls-4{fill-rule:evenodd;}.cls-4{fill:#fff;}</style><clipPath id="clip-path"><rect class="cls-1" width="265.98" height="54"/></clipPath></defs><title>logo</title><g class="cls-2"><path class="cls-3" d="M62.43,23.06A5.19,5.19,0,0,1,64,22a4.61,4.61,0,0,1,1.88-.38,4.57,4.57,0,0,1,1.44.22,5.61,5.61,0,0,1,1.27.64,2.49,2.49,0,0,0,1.44.44,2.54,2.54,0,0,0,1.06-.21,2.79,2.79,0,0,0,.83-.57l1-1a13.16,13.16,0,0,0-1.58-1.42,9.93,9.93,0,0,0-1.73-1.08A8.9,8.9,0,0,0,67.78,18a7.75,7.75,0,0,0-1.91-.24,9,9,0,0,0-2.34.31,9.16,9.16,0,0,0-2.11.89,8.81,8.81,0,0,0-1.79,1.36A9.8,9.8,0,0,0,58.25,22a8.9,8.9,0,0,0-.89,2.1,8.68,8.68,0,0,0,0,4.67,9,9,0,0,0,.89,2.09,9.15,9.15,0,0,0,1.38,1.77A8.85,8.85,0,0,0,61.42,34a9.13,9.13,0,0,0,2.11.88,8.64,8.64,0,0,0,2.34.31A7.75,7.75,0,0,0,67.78,35a9.47,9.47,0,0,0,1.84-.68,11.3,11.3,0,0,0,1.73-1.08,13.25,13.25,0,0,0,1.58-1.43l-1-1A2.49,2.49,0,0,0,70,30a2.59,2.59,0,0,0-1.44.43,5,5,0,0,1-1.26.63,4.33,4.33,0,0,1-1.45.24A4.78,4.78,0,0,1,64,30.93a5,5,0,0,1-1.56-1,4.9,4.9,0,0,1-1.07-1.54,4.62,4.62,0,0,1,0-3.76,4.85,4.85,0,0,1,1.07-1.53m28.46-1a9,9,0,0,0-1.38-1.77,8.54,8.54,0,0,0-1.79-1.36A8.9,8.9,0,0,0,80.93,18a9.16,9.16,0,0,0-2.11.89A8.81,8.81,0,0,0,77,20.27,9.8,9.8,0,0,0,75.65,22a8.9,8.9,0,0,0-.89,2.1,8.68,8.68,0,0,0,0,4.67,9,9,0,0,0,.89,2.09A9.15,9.15,0,0,0,77,32.67,8.85,8.85,0,0,0,78.82,34a9.13,9.13,0,0,0,2.11.88,9,9,0,0,0,4.68,0A9,9,0,0,0,87.72,34a8.59,8.59,0,0,0,1.79-1.37,8.43,8.43,0,0,0,1.38-1.77,9,9,0,0,0,.9-2.09,8.95,8.95,0,0,0,0-4.67,8.93,8.93,0,0,0-.9-2.1m-3.11,6.31a5,5,0,0,1-1.06,1.54,5,5,0,0,1-1.57,1,4.84,4.84,0,0,1-3.76,0,5,5,0,0,1-1.56-1,4.9,4.9,0,0,1-1.07-1.54,4.62,4.62,0,0,1,0-3.76,4.85,4.85,0,0,1,1.07-1.53,5.19,5.19,0,0,1,1.56-1,4.84,4.84,0,0,1,3.76,0,5.12,5.12,0,0,1,1.57,1,5,5,0,0,1,1.06,1.53,4.62,4.62,0,0,1,0,3.76m19.66.39a.84.84,0,0,0,0-.18c0-.09-.06-.21-.1-.34l-.17-.43a2.82,2.82,0,0,0-.23-.42l-6-8.81a1.4,1.4,0,0,0-.69-.51,2.87,2.87,0,0,0-1-.17H95.32v17.2h3.91V23.18l8.22,11.9h3.9V17.88h-3.91Zm92.3-10.86-7.51,17.2h2.55a2.77,2.77,0,0,0,1.43-.44,3.07,3.07,0,0,0,.59-.49,2.17,2.17,0,0,0,.4-.6l.82-1.91h6.84l.84,1.91a2.31,2.31,0,0,0,.4.64,3,3,0,0,0,.57.49,2.18,2.18,0,0,0,.68.29,2.68,2.68,0,0,0,.76.11h2.53l-7.51-17.2Zm-.15,10.2,1.51-3.6c.06-.16.12-.31.16-.46s.08-.27.1-.38a3.6,3.6,0,0,0,.08-.37,1.23,1.23,0,0,0,.06.36c0,.11.05.24.09.38a3.89,3.89,0,0,0,.17.47l1.5,3.6Zm27.32-5.93a8.17,8.17,0,0,0-1.36-1.74,8.49,8.49,0,0,0-1.76-1.35,8.25,8.25,0,0,0-2.07-.87,8.4,8.4,0,0,0-2.3-.31h-7.11v17.2h7.11a8.8,8.8,0,0,0,2.3-.31,8.61,8.61,0,0,0,2.07-.86,8.85,8.85,0,0,0,1.76-1.35,8.17,8.17,0,0,0,1.36-1.74,8.51,8.51,0,0,0,.88-2.05,8.58,8.58,0,0,0,0-4.57,8.51,8.51,0,0,0-.88-2.05m-3.13,6.15a4.83,4.83,0,0,1-1,1.48,4.94,4.94,0,0,1-1.51,1,4.48,4.48,0,0,1-1.81.37h-3.19V21.82h3.19a4.64,4.64,0,0,1,1.81.36,5.16,5.16,0,0,1,1.51,1,4.88,4.88,0,0,1,1,1.49,4.52,4.52,0,0,1,0,3.63m23-6.26a9.8,9.8,0,0,0-1.38-1.77,8.91,8.91,0,0,0-12.49,0A9.32,9.32,0,0,0,231.5,22a8.66,8.66,0,0,0-1.22,4.43,8.59,8.59,0,0,0,1.22,4.43,8.73,8.73,0,0,0,1.37,1.77,8.82,8.82,0,0,0,3.9,2.25,9,9,0,0,0,4.69,0,8.83,8.83,0,0,0,5.28-4,9,9,0,0,0,.89-2.09,8.68,8.68,0,0,0,0-4.67,8.9,8.9,0,0,0-.89-2.1m-3.11,6.31a5.07,5.07,0,0,1-1.07,1.54,5,5,0,0,1-1.57,1,4.84,4.84,0,0,1-3.76,0,5,5,0,0,1-1.56-1,5.07,5.07,0,0,1-1.07-1.54,4.73,4.73,0,0,1,0-3.76,5,5,0,0,1,1.07-1.53,5.19,5.19,0,0,1,1.56-1A4.84,4.84,0,0,1,241,22a5.12,5.12,0,0,1,1.57,1,5,5,0,0,1,1.07,1.53,4.73,4.73,0,0,1,0,3.76m17.77.54a7.2,7.2,0,0,0,1.25-1.12A5.74,5.74,0,0,0,264,25.21a6.39,6.39,0,0,0,.15-1.37,6.16,6.16,0,0,0-.17-1.4,6.33,6.33,0,0,0-.52-1.37,6.13,6.13,0,0,0-.85-1.25,5.21,5.21,0,0,0-1.18-1,6.16,6.16,0,0,0-1.49-.68,6,6,0,0,0-1.79-.25h-6.74v17.2h3.92V29.84h2.15l2.88,3.9a3.08,3.08,0,0,0,.68.74,3.5,3.5,0,0,0,.69.39,2.18,2.18,0,0,0,.58.17l.36,0H266ZM260,24.59a2.25,2.25,0,0,1-.42.66,2.22,2.22,0,0,1-.59.47,1.46,1.46,0,0,1-.7.18h-3V21.82h3a1.46,1.46,0,0,1,.7.18,2.19,2.19,0,0,1,.59.46,2.39,2.39,0,0,1,.42.66,1.88,1.88,0,0,1,0,1.47"/></g><g class="cls-2"><path class="cls-4" d="M46.54,23.57a20,20,0,0,0-3.92-9.24V10.44H38.68a19.84,19.84,0,0,0-8.63-3.7L27,0,24,6.64a19.9,19.9,0,0,0-9.33,3.8H10.94v3.63a20.09,20.09,0,0,0-4.16,9.86L0,27l6.94,3.15a20,20,0,0,0,4,8.83v4H15.2a20,20,0,0,0,8.27,3.35L27,54l3.6-7.79a19.29,19.29,0,0,0,4.52-1.47l-2.45-3.15A16.2,16.2,0,0,1,15.23,15.07l.15-.15h0v0A16.2,16.2,0,0,1,39.56,36.36l-2.51-3.23a12.32,12.32,0,1,0-10.4,5.71,12.15,12.15,0,0,0,3.48-.5l.06,0L26.5,33.58h0a7.05,7.05,0,1,1,3.63-.9l0,0,3.25,4.18h0l3.89,5h0L38.14,43l0,0h4.45V38.72a19.84,19.84,0,0,0,3.73-8.19L54,27Z"/></g><g class="cls-2"><path class="cls-4" d="M131.74,29.43a8.69,8.69,0,0,0-.69-7.38,8.43,8.43,0,0,0-1.38-1.77,8.77,8.77,0,0,0-1.79-1.37,8.48,8.48,0,0,0-2.1-.88,8.75,8.75,0,0,0-4.69,0,8.39,8.39,0,0,0-2.11.88,9,9,0,0,0-3.18,3.14,8.69,8.69,0,0,0-.89,6.76,8.62,8.62,0,0,0,2.28,3.86A9.14,9.14,0,0,0,119,34a8.88,8.88,0,0,0,2.1.88,8.78,8.78,0,0,0,2.36.31,10,10,0,0,0,2.55-.42l-2.58-3.5a4.78,4.78,0,0,1-1.88-.38A5.22,5.22,0,0,1,120,29.88a5.3,5.3,0,0,1-1.06-1.53,4.59,4.59,0,0,1-.39-1.88,4.54,4.54,0,0,1,.39-1.87A5.07,5.07,0,0,1,120,23.06a5.12,5.12,0,0,1,1.57-1,4.84,4.84,0,0,1,3.76,0,5.19,5.19,0,0,1,1.56,1,5.07,5.07,0,0,1,1.07,1.54,4.54,4.54,0,0,1,.39,1.87,3.86,3.86,0,0,1-.25,1.37,5.53,5.53,0,0,1-.7,1.31,6.15,6.15,0,0,1-1.08,1.15,5.79,5.79,0,0,1-1.38.88l4.2,5.84a3.07,3.07,0,0,0,2.68,1.33H135L130.31,32a8.68,8.68,0,0,0,1.43-2.54m13.88-1.28a3.05,3.05,0,0,1-.26,1.23,3.61,3.61,0,0,1-.71,1,3.67,3.67,0,0,1-1,.68,3,3,0,0,1-1.23.25,3,3,0,0,1-1.23-.25,3.57,3.57,0,0,1-1-.68,3.42,3.42,0,0,1-.71-1,2.9,2.9,0,0,1-.27-1.23V17.88h-3.93V28.15a6.9,6.9,0,0,0,.26,1.89,7.13,7.13,0,0,0,.72,1.7,7.41,7.41,0,0,0,1.13,1.43,7.75,7.75,0,0,0,1.45,1.11,6.78,6.78,0,0,0,1.71.71,7.32,7.32,0,0,0,4.68-.3,7.28,7.28,0,0,0,2.28-1.52A7,7,0,0,0,149,30.92a6.77,6.77,0,0,0,.57-2.77V17.88h-3.93Zm7.75,6.93h11.45V31.41H157.3V28.24h6.12V24.57H157.3v-3h7.52V17.88H153.37ZM178,26.3a5.69,5.69,0,0,0-1.41-1.14,9.48,9.48,0,0,0-1.82-.82c-.51-.18-1-.32-1.36-.43a8.48,8.48,0,0,1-1-.32,1.67,1.67,0,0,1-.58-.38.85.85,0,0,1-.19-.6.69.69,0,0,1,.13-.43,1.22,1.22,0,0,1,.37-.3,2,2,0,0,1,.52-.18,4.07,4.07,0,0,1,.61-.05,1.42,1.42,0,0,1,.55.1,4.4,4.4,0,0,1,.5.21l.54.21a2.33,2.33,0,0,0,.68.09,2.65,2.65,0,0,0,.87-.13,2.42,2.42,0,0,0,.75-.44l1.21-1a11.39,11.39,0,0,0-1-1.08,8.43,8.43,0,0,0-1.21-.95,7,7,0,0,0-1.38-.67,4.45,4.45,0,0,0-1.49-.26,6.53,6.53,0,0,0-2.06.33,5.56,5.56,0,0,0-1.78,1,4.7,4.7,0,0,0-1.26,1.53,4.45,4.45,0,0,0-.47,2.07,4.47,4.47,0,0,0,.43,2.07,4.4,4.4,0,0,0,1.11,1.41,6.41,6.41,0,0,0,1.54,1c.58.27,1.16.51,1.76.73a10.81,10.81,0,0,0,1,.37,6,6,0,0,1,.87.35,1.87,1.87,0,0,1,.6.44.91.91,0,0,1,.22.64,1.19,1.19,0,0,1-.24.74,2.13,2.13,0,0,1-.61.54,3.29,3.29,0,0,1-.79.33,3.25,3.25,0,0,1-.78.11,2,2,0,0,1-1-.22,8.28,8.28,0,0,1-.82-.47c-.26-.16-.53-.32-.81-.46a1.91,1.91,0,0,0-.93-.22,2.74,2.74,0,0,0-.69.1,3.32,3.32,0,0,0-.64.27l-1.25.72a6.46,6.46,0,0,0,2.33,3,6.88,6.88,0,0,0,1.76.87,6.31,6.31,0,0,0,2,.31,6.94,6.94,0,0,0,2.39-.41,6.67,6.67,0,0,0,2-1.16,5.67,5.67,0,0,0,1.41-1.78,5,5,0,0,0,.53-2.29,4.8,4.8,0,0,0-.33-1.82,5.06,5.06,0,0,0-.9-1.47m2.4-8.43v3.67h4.79V35.08h3.92V21.54h4.78V17.87Z"/></g></svg>