<?xml version="1.0" encoding="utf-8"?>
<!-- Generator: Adobe Illustrator 22.1.0, SVG Export Plug-In . SVG Version: 6.00 Build 0)  -->
<svg version="1.1" id="Слой_1" xmlns="http://www.w3.org/2000/svg" xmlns:xlink="http://www.w3.org/1999/xlink" x="0px" y="0px"
	 viewBox="0 0 56.4 56.4" style="enable-background:new 0 0 56.4 56.4;" xml:space="preserve">
<style type="text/css">
	.st0{fill:#1D1D1B;stroke:#FFFFFF;stroke-miterlimit:10;}
</style>
<title>Ресурс 3</title>
<g id="Слой_2_1_">
	<g id="Слой_1-2">
		<path class="st0" d="M47.8,24.8c-0.5-3.4-1.9-6.5-3.9-9.2v-3.9h-3.9c-2.5-1.9-5.5-3.1-8.6-3.7l-3.1-6.8l-3,6.6
			c-3.4,0.4-6.6,1.8-9.3,3.8h-3.7v3.6c-2.3,2.8-3.7,6.3-4.2,9.9l-6.8,3.1l6.9,3.1c0.6,3.2,2,6.3,4,8.8v4h4.3
			c2.5,1.7,5.3,2.9,8.3,3.3l3.5,7.7l3.6-7.8c1.6-0.3,3.1-0.8,4.5-1.4l-2.5-3.2c-1.9,0.8-3.9,1.1-6,1.1c-8.9,0-16.2-7.2-16.2-16.1
			c0-4.3,1.7-8.5,4.8-11.5l0.1-0.1l0,0l0,0c6.4-6.2,16.7-6.1,22.9,0.3c5.6,5.7,6.1,14.7,1.3,21.1l-2.5-3.2c3.6-5.7,1.9-13.3-3.8-17
			s-13.3-1.9-17,3.8s-1.9,13.3,3.8,17c2,1.2,4.3,1.9,6.6,1.9c1.2,0,2.3-0.2,3.5-0.5h0.1l-3.7-4.8l0,0c-3.9-0.1-7-3.3-6.9-7.2
			c0.1-3.9,3.3-7,7.2-6.9s7,3.3,6.9,7.2c-0.1,2.5-1.4,4.8-3.6,6l0,0l3.3,4.2l0,0l3.9,5l0,0l0.9,1.1l0,0h4.5v-4.3
			c1.9-2.4,3.1-5.2,3.7-8.2l7.7-3.5L47.8,24.8z"/>
	</g>
</g>
</svg>
